<?xml version="1.0" encoding="UTF-8" standalone="no"?>
<svg
   xmlns:dc="http://purl.org/dc/elements/1.1/"
   xmlns:cc="http://creativecommons.org/ns#"
   xmlns:rdf="http://www.w3.org/1999/02/22-rdf-syntax-ns#"
   xmlns:svg="http://www.w3.org/2000/svg"
   xmlns="http://www.w3.org/2000/svg"
   xmlns:xlink="http://www.w3.org/1999/xlink"
   xmlns:sodipodi="http://sodipodi.sourceforge.net/DTD/sodipodi-0.dtd"
   xmlns:inkscape="http://www.inkscape.org/namespaces/inkscape"
   version="1.0"
   width="818.30469"
   height="600"
   id="svg2"
   inkscape:version="0.91 r13725"
   sodipodi:docname="Flag_of_Burkina_Faso.svg">
  <metadata
     id="metadata26">
    <rdf:RDF>
      <cc:Work
         rdf:about="">
        <dc:format>image/svg+xml</dc:format>
        <dc:type
           rdf:resource="http://purl.org/dc/dcmitype/StillImage" />
        <dc:title></dc:title>
      </cc:Work>
    </rdf:RDF>
  </metadata>
  <defs
     id="defs24" />
  <sodipodi:namedview
     pagecolor="#ffffff"
     bordercolor="#666666"
     borderopacity="1"
     objecttolerance="10"
     gridtolerance="10"
     guidetolerance="10"
     inkscape:pageopacity="0"
     inkscape:pageshadow="2"
     inkscape:window-width="1600"
     inkscape:window-height="837"
     id="namedview22"
     showgrid="false"
     fit-margin-top="0"
     fit-margin-left="0"
     fit-margin-right="0"
     fit-margin-bottom="0"
     inkscape:zoom="0.69044441"
     inkscape:cx="409.15234"
     inkscape:cy="300"
     inkscape:window-x="-8"
     inkscape:window-y="-8"
     inkscape:window-maximized="1"
     inkscape:current-layer="svg2" />
  <path
     style="fill:#009e49"
     d="m 104.29296,298 -7.394526,6.13672 2.58594,4.96289 -1.03515,1.13867 -3.10157,0.20508 -3.72265,2.06836 -1.03516,2.06836 -0.20703,1.6543 -0.41406,1.13867 -0.10352,0.20703 -2.06836,1.03515 -1.0332,0.10157 -2.17188,-0.31055 -1.0332,0.31055 -1.13867,0.93164 -0.72461,1.34375 -0.72266,1.24219 -0.72265,1.13671 -1.55274,0.82813 -2.89648,0.51758 -1.75586,0.61914 -2.06836,-1.75977 -2.17383,0 -4.44531,1.55274 -2.06836,0 -2.27539,-0.51758 -2.171877,-0.20703 -2.275391,0.93164 -0.929687,0.72265 -1.035156,0.6211 -1.033203,0.31054 -1.240235,-0.10351 -1.863281,0.20703 -4.033203,-0.10352 -1.654297,0.10352 -1.550781,0.72461 -3.414063,2.06836 -3.101562,0.92969 -1.654297,1.34375 -2.6875,3.10351 -4.035156,3.3086 -2.066407,2.89648 -0.724609,0.61914 -0.724609,0.10352 -0.619141,-0.3086 -0.517578,-0.41406 -0.722656,-0.3125 -0.621094,0 -0.517578,0.3125 -0.414063,0.41406 -0.414062,0.20508 -3.515625,0.62109 -0.414063,0.20704 -0.722656,0.82617 -0.517578,0.10547 -0.619141,-0.20899 -1.345703,-0.92969 -0.414062,-0.10351 -1.447266,0.20703 -0.621094,0.20703 0,0.51758 0.621094,1.13672 0.621094,0.31055 2.6875,1.55078 0.414062,0.41406 1.757813,-0.41406 0.93164,0.10351 1.033203,0.31055 2.06836,0.92969 1.550781,1.0332 1.240235,1.44922 0.828124,2.06836 0.103516,1.86133 -0.205078,2.27539 -0.931641,4.13671 -0.517578,1.13672 -0.828125,1.03321 -0.517578,1.14062 0,1.24024 0.726563,1.13671 0.929687,0.20704 1.138672,-0.10352 1.136719,0.20703 3.61914,2.89453 1.033203,3.72461 0,8.78907 0.517579,2.3789 0.103515,1.34375 -0.826172,0.93164 -2.277343,1.13672 -1.550782,1.34375 -0.414062,1.86133 0.623047,11.06445 -0.208985,1.65625 -1.240234,2.27539 -3.205078,3.20508 -1.033203,2.48242 -0.623047,4.3418 -1.033203,1.44922 -2.480469,1.55078 -1.759766,0.72461 -1.757812,0.51758 -10.238281,1.34375 -1.550782,1.0332 -0.310546,1.6543 0.207031,0.93164 1.035156,5.48047 -0.621094,2.68945 2.275391,-0.51758 1.447266,2.89649 1.861328,7.34179 1.242187,2.27344 0.414063,1.24219 -1.449219,6.10156 0,0.92969 -0.101563,1.03515 -0.726562,0.51563 -0.826172,0.41406 -0.724609,0.72461 -0.517579,1.55078 -0.929687,5.6875 0,0.93164 0.515625,1.75781 0.105469,0.82618 1.654297,0.62109 -1.033204,1.0332 -0.726562,1.65625 -0.101562,1.6543 0.724609,0.72461 0.308594,0.92969 -1.34375,5.58594 -2.482422,3.82421 -0.414063,0.82813 -0.828125,5.37695 L 0,491.00195 l 1.757813,1.03516 1.861328,2.37891 1.242187,2.6875 0.103516,1.86328 1.447266,0.51758 0.722656,0.10156 1.035156,0 0.619141,0.41406 0.414062,0.82617 0.310547,0.93164 0.310547,0.72266 1.138672,0.93164 1.445312,0.72461 1.759766,0.41211 2.068359,0.10547 0.517578,-0.31055 0.308594,-0.62109 0.414063,-0.31055 0.517578,0.20898 0.515625,0.3086 0.517578,0.10156 1.136719,-0.10156 1.242187,-0.3086 0.621094,-0.62304 0.517578,-0.72266 0.828125,-0.51758 1.755859,0.10352 4.757813,0.72461 1.654297,-0.41406 5.066406,3 0.931641,-0.10547 0.722656,-1.44532 1.759766,0.20508 1.654297,1.03321 0.828124,1.65429 0,5.79102 -0.310546,0.51758 -0.414063,0.62109 0.101563,0.51758 1.345703,0.10351 0.722656,-0.31054 0.517578,-0.51758 0.517578,-0.61914 0.310547,-0.72461 0.310547,2.17187 -0.929687,1.85938 0,1.14062 2.6875,-0.10547 -0.621094,1.96485 0.621094,1.03515 2.585937,1.75782 0.205078,0.82617 -2.480469,0.82812 -0.93164,0.93164 0.93164,0 0.621094,0.20508 0.619141,0.20703 0.722656,0.20704 -1.445313,0.7246 0.826172,1.24219 1.136719,0.10156 1.242188,-0.51562 1.035156,-0.82813 0.515625,1.86133 1.138672,1.03516 1.34375,0.61914 1.240234,0.82812 1.136719,1.6543 0.726562,1.85938 -0.414062,1.44921 -2.171875,0.10352 0.412109,1.0332 1.242188,1.55078 1.136719,2.48243 0.103515,0.62109 -1.449219,4.34375 0.105469,1.24023 3.103517,2.79297 0.82617,0.41211 0.61914,-0.72265 0.51758,-0.93164 0.82812,-0.51563 1.13672,0.20703 0.51758,0.51758 0.31055,0.51758 0.93164,0.20508 2.37695,0.20703 2.06836,0.62109 1.44727,1.34375 0.72461,2.16992 1.96484,-0.72265 0.82813,1.65429 0.51562,2.37891 0.93164,1.75781 -1.65625,0.6211 -0.82617,0.10351 -1.0332,-0.10351 0,0.82812 0.93164,0.82813 0.20507,0.41015 0.31055,0.82813 1.34375,-0.41406 1.3457,2.27734 1.6543,-0.31055 -0.62109,-0.51758 -0.20703,-0.51757 0.41406,-0.31055 1.0332,-0.20703 1.03516,0.20703 0.51562,0.31055 0.3125,0.62109 0.61914,0.72461 1.24024,1.13672 0.31055,0.62109 0.20703,1.13672 0.20703,0.82813 0.51758,0.41406 1.44726,0.61914 0.51758,0.51758 0,0.41406 0,0.10351 0.82617,-0.31054 0.93164,-0.6211 0.61914,-0.72265 0.41407,-0.62305 -0.10157,-0.20508 1.44727,0 1.34375,-0.20703 1.13672,-0.62109 1.3457,-1.44727 1.24023,1.03516 1.44727,2.17187 1.24219,0.51563 1.447256,-0.51563 0.41407,-1.03515 0,-1.44727 0.51562,-1.44922 0.3125,-0.72265 0.10156,-0.41407 0.3125,-0.20703 1.96289,0 0.72461,0.20703 0.61914,0.31055 0.3125,0.51758 -0.20898,1.85937 -1.0332,2.68946 -0.20703,1.96484 1.44921,2.17188 3.3086,0.31054 3.72265,-0.20703 2.48047,0.6211 0.93164,1.55078 0.93164,3.51757 0.61914,1.13672 1.44922,0.61914 0.41211,-0.92968 -0.10351,-1.75782 0.31054,-1.65429 1.6543,0.41211 2.79102,1.24218 0.62304,-0.82812 1.34375,-2.68945 0.31055,-1.24024 -0.31055,-2.58398 0,-0.93164 0.61914,-0.93164 3.10352,-3.3086 -1.24024,-0.41406 -0.41406,-0.10156 1.34375,-1.24219 1.75781,-0.62109 3.92969,-0.51758 1.86133,-1.03321 3,-4.24023 1.86133,-1.44727 1.75781,-0.20703 5.89453,1.75782 1.13867,0.62109 0.61914,0.20703 0.6211,-0.20703 0.20703,-0.51758 0,-0.51758 0.10352,-0.30859 1.55078,-0.72461 0.93164,-0.31055 3.30859,0 0.61914,-1.55078 0.41406,-1.65625 1.55079,-0.82617 2.27539,-0.61914 3.82617,-2.48242 1.96679,-0.6211 0.20508,0 6.82422,-0.20703 1.9668,-0.62109 0.92969,-0.61914 1.65429,-1.75977 1.03516,-0.72265 1.44726,-0.51758 5.06836,-0.61914 0.72266,0.10156 1.44922,0.82813 0.61914,0.10351 0.51758,-0.31055 0.92969,-1.24023 0.41406,-0.20703 1.34375,0.41211 0.82812,0.82812 0.6211,0.82617 1.13672,0.82813 1.75976,0.3125 6.20313,-0.82813 16.23632,1.34376 1.34375,0.51757 1.75782,1.75782 1.13672,0.51757 0.93164,-0.3125 1.24023,-0.72265 1.03516,-0.41407 0.51562,0.72461 -0.10156,2.06836 0.20703,2.17188 1.03516,1.34375 2.47851,-0.20703 1.34571,-1.44727 3.51757,-5.06836 1.6543,-1.13672 1.23828,0.72461 0,2.06836 -0.20508,2.48047 0.41407,2.17383 1.85937,1.0332 2.27735,0 2.37695,0.6211 2.06836,2.48242 1.3457,5.16992 1.0332,2.37695 1.75782,1.55078 1.86132,0.10352 3.6211,-1.0332 1.96484,0.41406 1.55078,1.6543 1.34375,2.48242 1.86133,4.86133 5.06836,10.13281 10.33984,13.96094 2.37891,1.75976 2.48242,0.20508 1.96485,-1.6543 2.48242,-5.48242 3.20508,-3.10156 -3.72266,-4.75586 -3.72266,-3.41406 -0.51757,-1.03516 -0.20704,-1.75586 0.20704,-1.6543 0.51757,-1.75976 0.92969,-1.55078 1.24219,-1.13672 -1.13672,-0.82617 -0.3125,-1.03516 -0.10156,-0.92969 -0.51758,-0.82812 -0.93164,-0.51758 -0.51758,0.10352 -0.61914,-0.10352 -0.82813,-0.93164 -0.72265,-2.17188 0.41406,-2.27343 1.75586,-3.51563 3.51758,-4.03515 0.72265,-1.03321 -0.30859,-1.03515 -2.48242,-4.03321 -0.41406,-2.6875 0.93164,-4.75781 0.10156,-2.6875 -0.61914,-1.96484 -2.37891,-3.51758 -0.51758,-2.16992 0,-8.9961 -1.03515,-4.75976 0,-2.06836 1.3457,-2.16992 2.06836,-1.6543 0.82617,-0.93164 0.31055,-1.44727 -0.10156,-1.34375 -0.3125,-0.62109 -0.61914,-0.31055 -1.03516,-0.61914 -1.0332,-0.3125 -0.93164,0 -0.61914,-0.30859 -0.3125,-1.13867 -0.3086,-0.72266 -0.93164,-0.20703 -1.0332,-0.10547 -0.93164,-0.41016 -0.82617,-1.75976 0,-2.17188 0.51757,-2.17187 0.72266,-1.55078 0.72266,-0.93164 0.82812,-0.72266 0.93164,-0.31055 1.34375,-0.10351 1.13867,-0.51563 1.03516,-0.93164 0.41211,-1.03515 -0.41211,-0.41407 -2.48242,-0.10156 -1.75977,-0.3125 -1.24023,-0.61914 -3.61914,-3.20508 -0.82813,-1.3457 -0.30859,-2.06836 -0.3125,-0.51758 -1.44727,-1.3418 -0.41211,-0.62109 -0.31054,-1.0332 -0.20703,-2.27735 -0.20704,-1.0332 -3.10351,-5.58594 -0.41406,-1.96289 0.3125,-1.0332 1.34375,-2.58594 0.62109,-1.65625 0.30859,-0.41211 0.20704,-0.51758 0,-0.62109 -0.31055,-0.51758 -0.41406,-0.20508 -0.51758,-0.10351 -0.10156,0 -0.10352,-0.41406 -0.31055,-1.13672 0.31055,-0.6211 1.13672,-1.13867 0.51758,-0.92969 0.41406,-2.48242 1.75781,-2.79297 1.13867,-4.85937 0.72266,-2.27344 1.44922,-1.55273 1.6543,-1.34375 1.34375,-1.44922 0.62109,-2.48242 -0.62109,-1.96289 -1.13868,-1.86133 -0.61914,-2.06836 0.20703,-0.72461 -0.10546,-0.62109 8.89648,0.20703 0.10156,1.03515 2.27539,0 116.85547,-1.13672 1.13672,-0.72656 0.82813,-1.85937 1.75781,-0.51758 13.03125,0.41211 2.37695,0.93164 3.41406,1.3457 2.58594,0.41406 25.64453,0.3086 0.93164,-1.6543 2.89649,-0.41406 14.26953,1.13672 0.82812,0.10547 0.82813,0.61914 0.72265,1.44921 0.51758,0.3086 1.03321,-0.10352 -0.61914,1.44922 1.75781,-0.20898 2.3789,-2.58399 2.16993,-0.31054 0.62109,-0.82813 0.61914,-0.20508 0.51758,0.20508 0.51758,0.82813 11.89258,0.20703 0.62109,0 0.20703,1.13672 0.41406,0.10546 0.72266,-0.20898 1.0332,0.10352 0.51758,0.72461 -0.41406,0.82617 -0.72266,0.82812 -0.31055,0.72266 4.96485,4.86328 1.75586,-1.13867 1.03515,-2.37891 0.82813,-2.58398 0.93164,-1.75782 1.44726,-0.62304 2.17188,-0.20508 4.0332,0.10352 0.3086,-0.10352 0.41406,-0.10352 0.31055,-0.31054 0.20703,-0.20703 1.0332,-1.24219 2.68945,-1.3418 1.24219,-0.93164 0.51563,-1.13672 0.20703,-2.3789 0.51758,-1.55274 1.96484,-2.58398 1.96484,0 1.96289,1.65429 1.86329,2.17188 5.27343,-3.72461 1.24219,-1.3418 0.82617,-1.55273 -0.20703,-0.92969 -0.41406,-1.03516 0.3125,-1.65429 13.95898,2.89453 5.37696,1.13867 50.67187,10.44531 11.47852,2.37696 0.20898,0.10547 0.20508,0.20507 0,0.41407 -0.10156,0.41406 -0.10352,0.41211 -0.10547,0.41406 -0.41211,0.51758 1.6543,0.41406 -1.24219,4.44727 12.92774,-4.55078 6.51562,-1.24219 23.3711,-0.51563 3.10156,1.75782 1.44726,0.20703 1.86328,0 0.41211,-0.51758 0.20703,-1.24024 -0.10156,-1.24218 -0.51758,-0.61914 -0.82812,-0.31055 -0.41406,-1.0332 0,-1.13868 0.10351,-1.03515 0.31055,-0.3086 0.93164,-1.3457 0.61914,-1.24023 0.62109,-0.92969 0.51563,-0.20703 0.41406,0.20703 2.27539,0.31055 0.72461,0.51757 0.51758,0.51563 0.51562,0.20703 0.31055,0.20508 0.6211,1.03516 0.10351,0.31054 0.72266,-0.10351 1.13672,-0.51563 0.3125,-0.10351 3.20507,0.30859 1.13672,0.41406 0.20899,0.51758 0.72265,1.0332 0.82813,0.72266 0.30859,-0.51563 0.10547,-1.65429 -1.14062,-1.24024 -0.72266,-1.13672 -0.10156,-1.14062 0,-1.24024 -0.20899,-1.24023 -0.20507,0 -1.03516,-0.41406 -0.31055,-0.20703 0,-0.51758 0.10547,-1.24024 -0.10547,-0.51757 -0.92969,-0.20508 -0.7246,0.61914 -0.3086,0.10351 -0.10547,-1.55078 0.51758,-0.20508 3.41211,-0.82812 0.62109,-0.41406 0.72461,-1.86133 0.41211,-0.62109 1.13867,0 2.06836,1.0332 1.03516,0.41406 -0.51758,-1.85937 -0.41406,-3.6211 -1.96484,-3.20703 0.51562,-1.24023 1.03516,-1.03321 1.13672,-1.65429 0.93164,0.72265 0.82812,1.24219 -0.10547,0.51758 0.82813,0 0.62109,-0.20899 0.51563,-0.30859 0.93164,-0.20703 1.86132,0 1.75782,0.51562 3.41406,1.6543 1.24023,-2.48047 0.20508,-0.82812 -0.20508,-1.03321 -1.03515,-0.93164 -0.20508,-0.82617 0.51758,-1.3457 1.13672,0.62109 1.24023,1.34571 0.61914,1.13671 0.72461,-0.82812 0.72461,-0.30859 0.72461,0.30859 0.72266,0.82812 1.75781,-1.55078 -0.20703,-1.3457 -0.92969,-1.44531 -0.62109,-1.75977 0.82812,-2.06836 2.17188,-1.34375 2.27343,-1.0332 1.6543,-1.03516 -0.92773,-2.17187 0.10156,-0.92969 0.82617,-1.24219 1.3457,-1.03515 1.34571,-0.41407 1.0332,-0.61914 0.62109,-1.44922 1.6543,0.93165 2.06836,0.41406 9.7207,0.72265 -0.20898,0.72657 -0.30859,1.55078 -0.10352,0.61914 1.75781,-0.10156 2.17188,4.0332 2.06836,-0.62305 1.75781,-0.92968 4.75781,-1.03321 1.96485,-0.93164 1.55078,-0.51562 4.65429,0.30859 1.96289,-0.20703 4.03321,-1.6543 1.96484,-0.31055 1.75781,0.51758 1.03321,-0.72265 1.24218,0.20507 2.68946,1.24219 4.34179,1.75781 3.72461,0.31055 2.79102,-1.44726 14.06445,-14.375 7.55078,-6.20508 5.58399,-3.10352 1.44531,-1.44726 0.3125,-0.93164 0,-1.24024 0,-1.75586 1.13672,-3 3.92969,-4.44726 1.55078,-2.79102 2.79297,-9.72265 0.92968,-0.51563 -5.48046,-4.55078 L 789.10156,298 l -684.8086,0 z"
     id="rect4"
     inkscape:connector-curvature="0" />
  <path
     d="m 522.75,0 -26.0586,0.20507812 -3.51562,0.93164068 -3,2.2753906 -5.58203,5.4804687 -21.30469,18.7187499 -0.10352,0.101563 -3.61914,2.277343 -3.92968,1.654297 -19.75196,4.75586 -4.44531,2.171875 -35.78125,23.060546 -7.23828,1.34375 -7.34375,0.414063 -8.48047,-0.722656 -4.96484,0.205078 -3.10157,1.449219 -0.82617,2.791015 -1.86133,25.853516 -0.41406,1.138672 -0.82617,0.722656 -5.06836,2.275391 -2.06836,0.929687 -1.55078,0.208985 -3.3086,-0.72461 -24.19921,-11.478516 -7.85938,-1.757812 -5.6875,1.447266 -8.37695,4.757812 -2.27539,1.962891 -5.89258,6.515625 -1.75977,1.964846 -15.30468,8.48047 -2.68946,4.44726 0.6211,-0.10351 0.31054,0.20703 0.10157,0.20508 0.20898,0.20898 -4.0332,13.64844 -1.86328,3 -1.6543,4.0332 0.51758,5.6875 2.89648,9.92774 -3.61914,1.3457 -3.61914,1.44531 -0.72656,0.10547 -0.72266,-0.31055 -0.72265,-0.51758 -0.82813,-0.31054 -2.58594,-0.20703 -0.82812,0.20703 -1.13672,0.62109 -1.85938,1.96289 -1.14062,0.41406 -0.72266,-1.65429 -0.31054,-1.55078 -0.51758,-0.93164 -1.85938,-1.75586 -2.58593,-1.55274 -2.17188,0.10352 -2.27539,0.41406 -2.79102,-0.31055 -4.65429,-3.41211 -2.79297,-1.0332 -2.06836,2.06836 2.17383,1.6543 0.72265,2.48242 -0.51757,5.89258 -0.51758,2.48242 -1.55078,3.92969 3.72265,26.26562 -1.44726,0.93164 -16.95899,1.03516 -2.27539,0.92969 -0.41406,3 1.24219,3.61914 0.10156,1.86132 -1.0332,1.75782 -1.24024,0.31054 -1.24219,-0.20703 -4.44531,-0.72461 -2.27734,0.10547 -0.72266,-0.10547 -0.93164,-0.62109 -1.6543,-1.75586 -0.61914,-0.20898 -1.3457,0.20898 -0.82812,-0.20898 -8.375,-6.61719 -4.75782,-2.89649 -7.65234,-6.10156 -1.96484,-0.82617 -4.24024,-1.13867 -3.51562,-1.44531 -1.6543,-0.3125 -2.06836,0.20703 -2.06836,-0.10352 -2.37695,-0.61914 -1.34571,-1.03516 1.34571,-1.24023 0.82617,-0.51758 2.16992,-1.96484 0.72656,-0.31055 1.03321,-0.10351 0.72265,-0.41407 0,-1.13672 -0.51562,-0.31054 -2.48242,-0.51758 -0.92969,-0.30859 -0.31055,-0.6211 -0.51758,-2.17187 -0.61914,-0.82618 -0.41406,-0.3125 -0.3125,-0.10156 -0.41211,0.10156 -0.31055,0.3125 -1.44726,1.6543 0.61914,0.41406 1.3457,0.10157 0.82813,0.62109 -0.62305,0.93164 -1.3418,1.24023 -1.55273,1.03321 -1.13672,0.31055 -1.24219,0.51757 -1.55078,1.75782 -0.93164,0.62109 -2.79101,0.72266 -0.82813,0.41406 -1.75781,1.55273 -1.03321,1.96485 -1.75781,4.34179 -1.65625,2.48243 -1.96289,2.27539 -1.0332,0.61914 -1.03516,0 -0.93164,-0.20508 -1.0332,0.10156 -1.55078,1.13867 -1.86328,1.65625 -1.55079,1.85938 -0.51757,1.55078 0.72656,1.03515 2.16992,1.24219 0.30859,0.92774 -0.72265,0.93164 -1.24024,0.31054 -6.61914,-0.31054 -1.75781,0.72461 -1.24023,3.51562 -0.72266,0.82813 -0.51758,0.92968 0,1.34375 0.61914,0.93164 3,2.79297 2.79102,5.9961 1.24023,1.86328 3.10352,2.48242 1.86133,2.48047 0.82812,2.89648 -0.31055,5.99805 1.34376,4.75586 -0.20704,1.34375 -2.17187,6.82617 -1.0332,1.24024 -0.10352,0.10351 -1.24219,0.82813 -1.96289,0.72265 -2.17383,0.3125 -1.34375,-0.41406 -2.99804,-1.86328 -3,-0.61914 -3.51563,0.31055 -3.41211,0.82617 -3,1.13867 -1.13672,0.20703 -0.61914,-0.20703 -0.41406,0.30859 -0.62109,5.48242 0.92968,1.75782 4.44727,3.41211 1.75781,1.75781 2.17188,4.86133 0.92968,1.44726 0.51758,0.31055 0.10547,0.41406 -0.72656,1.44727 -1.44727,1.96289 -1.96289,1.9668 -1.75976,2.06836 -0.82617,2.58398 3.72265,8.99805 0.93164,4.44531 -3,0.62109 -0.93164,-0.82617 -0.82812,-1.13672 -1.03321,-0.82812 -1.55078,0.10156 -1.13867,0.72656 -0.20508,0.72266 0,0.82812 -0.41406,1.6543 0.20508,1.13672 -0.10156,0.72266 -0.41407,0.41406 -4.11523,3.41406 688.64648,0 -5.3164,-7.44727 -1.96485,-3.72265 0.31055,-2.99805 1.55078,-1.34375 5.89453,-1.24219 0.51758,-0.41211 0.72461,-1.03515 0.61914,-0.31055 0.31055,0.10352 1.13867,0.51758 0.51758,0.10156 6.20508,-0.51563 1.44531,-0.41211 0.72461,-1.14062 -0.20703,-2.27344 0,-0.51758 0.41406,-1.13672 0,-0.41406 -0.41406,-0.82812 -1.34375,-1.44532 -0.61914,-0.82812 -0.82813,-1.6543 -0.51758,-1.3457 -0.72265,-6.3086 -0.41407,-1.34374 -0.62109,-1.44727 -0.93164,-1.13867 -1.96484,-1.13672 -1.03321,-0.93164 -1.13867,-1.13672 -0.41406,-0.51758 -0.51563,-2.06836 -2.68945,-3.20508 -4.23828,-1.13672 -10.0332,-0.82812 -0.93165,0.51758 -1.75585,1.96484 -1.13672,0.72266 -0.82813,-0.10352 -0.72461,-0.30859 -0.82812,0.10351 -0.51563,0.51563 -0.62109,1.44922 -1.75781,2.58594 -1.13868,2.06835 -1.24023,1.75586 -1.75586,1.24024 -1.75977,0.20898 -23.78515,-2.06836 -3.41211,-0.93164 -2.89648,-1.65429 -23.78516,-20.0625 -19.85352,-16.64844 -3.10156,-1.55078 -7.3457,-0.6211 -2.9961,-1.65625 -0.93164,-1.65429 -0.31054,-2.06836 0,-1.85938 -0.10352,-25.64843 1.3457,-4.23829 2.17188,0.41407 8.27148,3.30859 5.58594,1.34375 2.27344,0.92969 0.72265,-0.20508 1.03516,-3.61914 0.51758,-1.13867 0.51562,-0.61914 1.86329,0.61914 1.75585,1.44922 1.9668,1.0332 2.79297,-1.13867 -1.96484,-2.27344 -1.55274,-1.03516 -1.75781,-0.51757 -4.34375,-0.51563 -1.86133,-0.62109 -11.27148,-5.16993 -3.41211,-2.48242 -1.96485,-3.20508 -0.51757,-4.75781 -4.24024,-4.44726 -5.58398,-3.3086 -4.75782,-1.44726 -3.92968,0.30859 -1.75782,-0.10351 -2.06836,-0.92969 -1.24023,-1.13867 -0.10351,-0.72266 0.41406,-0.41406 0,-0.41407 0,-0.61914 0,-0.93164 -0.31055,-0.72265 -1.0332,-0.20899 -13.75391,0.41407 -2.68945,-0.93165 -1.44727,-2.58398 0.41406,-1.6543 1.03321,-2.17187 0.62109,-1.96485 -0.72461,-1.03515 -1.96484,-0.72266 -1.13672,-1.24219 -1.13867,-1.34179 -3.41211,-2.27735 -1.6543,-1.44531 -0.31055,-0.62305 -0.93164,-1.13671 -0.82617,-1.96485 -0.82812,-0.92969 -2.17188,-1.44726 -0.61914,-0.72656 -0.10547,-1.13672 0.93164,-1.85938 0,-0.93164 -1.13672,-1.24219 -1.75781,-0.92968 -1.75976,-1.13867 -0.82617,-1.85938 -0.20704,-1.86328 -1.03515,-0.93164 -1.3418,-0.61914 -0.93164,-1.13672 -0.10352,-0.93164 0.92969,-1.6543 0.10547,-0.72266 -0.41406,-0.93164 -0.6211,-0.51757 -0.62109,-0.51563 -0.62109,-0.72656 -1.3418,-1.96289 -0.41406,-1.13867 0.41406,-1.240238 2.47852,-3.826172 0.51757,-1.34375 0.51758,-3.207031 0.31055,-0.929688 1.03515,-1.345703 0.10157,-0.826172 -0.3086,-0.621094 -4.34375,-5.894531 -14.89257,-13.443359 -1.44532,-1.34375 -3.10351,-5.06836 -0.6211,-5.376953 6.92969,-19.441406 -0.72461,-3.205078 -2.89453,-6.101563 0.10156,-3 1.24024,-1.654296 1.44922,-1.136719 0.93164,-1.449219 -0.20703,-2.378906 -26.06055,-8.9960939 -13.85742,-5.6875 -7.13477,-1.6542969 -6.51562,1.1367188 -6.41016,3.9296875 -3.72461,1.65625 -2.89453,-0.1054687 -1.03516,-1.34375 -2.3789,-6.30664068 L 522.75,0 Z"
     id="rect6"
     style="fill:#ef2b2d;fill-opacity:1"
     inkscape:connector-curvature="0" />
  <g
     transform="translate(409.15234,300)"
     id="g8"
     style="fill:#fcd116">
    <g
       id="c">
      <path
         id="t"
         d="M 0,-100 0,0 50,0"
         transform="matrix(0.95105652,0.30901699,-0.30901699,0.95105652,-30.901699,-4.8943484)"
         inkscape:connector-curvature="0" />
      <use
         xlink:href="#t"
         transform="scale(-1,1)"
         id="use12"
         x="0"
         y="0"
         width="100%"
         height="100%" />
    </g>
    <use
       xlink:href="#c"
       transform="matrix(0.30901699,0.95105652,-0.95105652,0.30901699,0,0)"
       id="use14"
       x="0"
       y="0"
       width="100%"
       height="100%" />
    <use
       xlink:href="#c"
       transform="matrix(-0.80901699,0.58778525,-0.58778525,-0.80901699,0,0)"
       id="use16"
       x="0"
       y="0"
       width="100%"
       height="100%" />
    <use
       xlink:href="#c"
       transform="matrix(-0.80901699,-0.58778525,0.58778525,-0.80901699,0,0)"
       id="use18"
       x="0"
       y="0"
       width="100%"
       height="100%" />
    <use
       xlink:href="#c"
       transform="matrix(0.30901699,-0.95105652,0.95105652,0.30901699,0,0)"
       id="use20"
       x="0"
       y="0"
       width="100%"
       height="100%" />
  </g>
</svg>
